<svg class="h-10 w-10" xmlns="http://www.w3.org/2000/svg" viewBox="0 0 512.002 512.002" xmlns:v="https://vecta.io/nano"><path d="M404.453 259.581h-85.331-85.334-85.331-53.334v186.595c0 30.336 24.818 55.156 55.154 55.156H381.3c30.333 0 55.154-24.821 55.154-55.156V259.581h-32.001z" fill="#fcd051"/><g fill="#d12d4e"><path d="M63.12 195.576h405.331v64.003H63.12z"/><path d="M43.538 134.663L429.467 10.668l19.577 60.933L63.115 195.596z"/></g><g fill="#000003"><path d="M247.757 312.916h.256a10.67 10.67 0 0 0 10.667-10.667 10.67 10.67 0 0 0-10.667-10.667h-.256a10.67 10.67 0 0 0-10.667 10.667 10.67 10.67 0 0 0 10.667 10.667zm-109.968-.005h79.322a10.67 10.67 0 0 0 10.667-10.667 10.67 10.67 0 0 0-10.667-10.667h-79.322a10.67 10.67 0 0 0-10.667 10.667 10.67 10.67 0 0 0 10.667 10.667zm219.136 42.67h.253a10.67 10.67 0 0 0 10.667-10.667 10.67 10.67 0 0 0-10.667-10.667h-.253a10.67 10.67 0 0 0-10.667 10.667 10.67 10.67 0 0 0 10.667 10.667zm-219.136-.004H326.28a10.67 10.67 0 0 0 10.667-10.667 10.67 10.67 0 0 0-10.667-10.667H137.789a10.67 10.67 0 0 0-10.667 10.667 10.67 10.67 0 0 0 10.667 10.667z"/><path d="M393.789 376.906h-256a10.67 10.67 0 0 0-10.667 10.667 10.67 10.67 0 0 0 10.667 10.667h117.333v60.424a10.67 10.67 0 0 0 10.667 10.667 10.67 10.67 0 0 0 10.667-10.667V398.24h117.33a10.67 10.67 0 0 0 10.667-10.667c.003-5.892-4.774-10.667-10.664-10.667zm85.278-182.38l-.068-.477-.085-.555-.129-.533-.123-.479-.179-.512-.174-.473-.217-.467-.23-.479-.256-.433-.282-.463-.337-.461-.284-.378a11 11 0 0 0-.702-.778l-.023-.021a10.4 10.4 0 0 0-.764-.691l-.371-.277-.467-.343-.449-.273-.449-.265-.459-.221-.489-.227-.445-.162-.542-.19-.438-.112-.574-.14-.495-.077-.537-.077-.852-.042-.195-.011H131.203L452.289 81.755c.269-.085.526-.19.783-.295l.186-.068c.403-.175.787-.375 1.16-.592l.266-.166.842-.586.279-.217c.334-.275.654-.564.95-.875l.108-.125a10.74 10.74 0 0 0 .74-.902l.214-.302c.253-.371.492-.75.696-1.146l.019-.041.417-.923.158-.459.177-.531.127-.529.11-.488.073-.527.064-.511.02-.496.015-.553-.028-.477-.041-.564-.083-.523-.086-.507-.241-.902c-.012-.037-.018-.075-.029-.112L439.61 7.405a10.67 10.67 0 0 0-5.283-6.226c-2.515-1.294-5.444-1.534-8.137-.669l-60.887 19.562-.09.029-81.18 26.081-.044.013-81.111 26.061-.211.067-81.096 26.054c-.028.011-.058.019-.085.027l-81.182 26.083-1.001.375-.109.052-.827.409-.134.083-.753.468c-.031.021-.06.046-.09.068l-.739.566-.047.044-.714.667-.049.057-.638.725-.129.179-.481.671a10.22 10.22 0 0 0-.534.921l-.438.973-.243.717-.092.275-.207.892c-.007.039-.02.081-.028.121l-.119.916c-.003.039-.012.079-.015.116l-.028.867-.005.179.051.796.018.247.124.756.047.275c.073.339.162.677.27 1.008l19.062 59.331v62.338l.038.776.014.254c.023.254.067.502.109.75l.043.282.175.717.076.295.233.665.117.321.283.608.164.341.341.577.194.321.473.642.148.201c.452.553.958 1.058 1.511 1.51l.244.181.596.437.371.225.523.31.41.196.537.25.413.153.57.198.429.111.58.142.516.079.512.073 1.012.052c.013 0 .023.002.036.002h21.333v175.927c0 36.294 29.527 65.824 65.821 65.824h231.023c36.294 0 65.821-29.53 65.821-65.824V270.248h21.331a10.67 10.67 0 0 0 10.667-10.667v-64.003c0-.352-.019-.702-.053-1.052zm-134.193 54.387l42.665-42.668h55.159l-42.665 42.668h-55.159zm-85.333 0l42.667-42.668h55.16l-42.665 42.668h-55.162zm-85.332 0l42.666-42.668h55.16l-42.667 42.668h-55.159zm-79.086 0h-6.245l42.666-42.668h55.159l-42.666 42.668H95.123zm28.726-128.862l53.669 27.571-52.513 16.869-53.672-27.569 52.516-16.871zm81.246-26.101l53.669 27.571-52.52 16.874-53.67-27.571 52.521-16.874zm81.236-26.098l53.672 27.569-52.516 16.872-53.669-27.571 52.513-16.87zm81.246-26.104l53.67 27.573-52.515 16.869-53.673-27.569 52.518-16.873zm-271.3 131.975l-26.259 8.436-8.436-26.256 34.695 17.82zM73.79 206.246h27.581l-27.581 27.58v-27.58zM430.995 50.343l-34.693-17.822 26.256-8.436 8.437 26.258zm-5.208 395.833c0 24.531-19.957 44.489-44.486 44.489H150.277c-24.53 0-44.486-19.958-44.486-44.489V270.248h319.997l-.001 175.928h0zm10.667-197.263h-6.248l27.58-27.581v27.581h-21.332z"/></g></svg>
