<svg xmlns="http://www.w3.org/2000/svg" viewBox="0 0 511.874 511.874" xmlns:v="https://vecta.io/nano"><path d="M256 52.461C267.476 23.33 292.193.378 323.09.378c25.6 0 47.669 13.241 64.441 32.662 22.952 25.6 33.545 82.097-9.71 123.586C355.752 177.813 256 281.978 256 281.978L134.179 156.626c-43.255-40.607-33.545-97.103-9.71-123.586C141.241 14.502 163.31.378 188.91.378c30.897 0 55.614 22.069 67.09 52.083" fill="#e8594b"/><path d="M505.821 345.537c7.062-5.297 7.945-15.89 2.648-22.952-11.476-15.007-20.303-19.421-58.262.883l-76.8 46.786c-23.835 12.359-84.745 8.828-111.228 8.828 0 0 62.676 4.414 37.959-32.662-12.359-18.538-33.545-29.131-56.497-29.131h-34.428c-20.303 0-39.724-6.179-55.614-17.655-37.959-29.131-109.462 26.483-109.462 26.483v158.897h123.586c17.655 0 35.31-1.766 52.966-4.414l114.759-17.655c3.531 0 7.945-.883 11.476-.883h0c9.71-.883 17.655-6.179 24.717-12.359l134.18-104.166z" fill="#faba81"/><path d="M0,511.496h44.138V299.633H0V511.496z" fill="#139db5"/><path d="M167.724 414.392c-5.297 0-8.828-3.531-8.828-8.828 0-22.069 16.772-35.31 44.138-35.31h85.628c5.297 0 8.828 3.531 8.828 8.828s-3.531 8.828-8.828 8.828h-85.628c-26.483 0-26.483 13.241-26.483 17.655.001 5.296-3.53 8.827-8.827 8.827z" fill="#f4935e"/></svg>