<?xml version="1.0" standalone="no"?>
<!DOCTYPE svg PUBLIC "-//W3C//DTD SVG 20010904//EN"
 "http://www.w3.org/TR/2001/REC-SVG-20010904/DTD/svg10.dtd">
<svg version="1.0" xmlns="http://www.w3.org/2000/svg"
 width="700.000000pt" height="700.000000pt" viewBox="0 0 700.000000 700.000000"
 preserveAspectRatio="xMidYMid meet">
<metadata>
Created by potrace 1.14, written by Peter Selinger 2001-2017
</metadata>
<g transform="translate(0.000000,700.000000) scale(0.100000,-0.100000)"
fill="#000000" stroke="none">
<path d="M5750 6968 c-52 -17 -1249 -401 -2659 -854 -1869 -601 -2571 -830
-2589 -846 -32 -30 -52 -71 -52 -105 0 -15 61 -217 135 -449 l135 -420 0 -445
c0 -418 1 -446 19 -473 40 -61 59 -66 243 -66 l167 0 4 -1267 3 -1268 22 -84
c88 -333 331 -576 668 -667 66 -18 139 -19 1794 -19 l1725 0 89 28 c166 52
278 118 392 231 111 111 187 238 236 399 l23 72 5 1285 5 1285 177 5 c171 5
177 6 203 30 56 52 55 41 55 552 0 454 -1 474 -20 506 -11 18 -34 41 -52 52
-33 20 -57 20 -2353 21 l-2320 1 275 90 c442 144 556 181 1545 498 517 166
1014 325 1105 355 91 29 455 146 810 260 355 114 658 214 673 222 39 20 67 70
67 120 0 48 -259 868 -291 919 -22 36 -73 64 -116 64 -15 -1 -71 -15 -123 -32z
m70 -4901 c0 -1187 -1 -1237 -19 -1309 -48 -186 -168 -332 -336 -408 -128 -58
-29 -55 -1840 -55 -1593 0 -1673 1 -1730 18 -102 32 -195 87 -265 157 -81 82
-127 158 -157 262 l-23 80 0 1244 0 1244 2185 0 2185 0 0 -1233z"/>
<path d="M1805 2990 c-92 -61 -84 -203 15 -252 32 -17 82 -18 605 -18 523 0
573 1 605 18 99 49 109 196 17 252 -31 19 -54 20 -622 20 -571 0 -591 -1 -620
-20z"/>
<path d="M3313 2990 c-97 -59 -93 -199 7 -250 50 -25 83 -25 136 1 105 50 107
201 4 254 -41 21 -109 19 -147 -5z"/>
<path d="M1812 2410 c-95 -58 -95 -192 0 -250 32 -20 53 -20 1356 -20 1456 0
1372 -4 1412 62 33 54 35 92 9 145 -46 91 85 83 -1419 83 -1305 0 -1326 0
-1358 -20z"/>
<path d="M4810 2411 c-36 -19 -80 -88 -80 -125 0 -40 43 -109 80 -128 106 -55
228 24 217 141 -11 104 -123 163 -217 112z"/>
<path d="M1820 1831 c-101 -53 -107 -194 -11 -253 l36 -23 823 -3 822 -2 0
-431 c0 -470 0 -466 58 -508 47 -33 100 -36 151 -9 83 44 81 34 81 520 l0 428
824 2 c819 3 825 3 853 24 99 74 96 199 -7 252 l-44 22 -1776 0 c-1709 0
-1777 -1 -1810 -19z"/>
</g>
</svg>
